{
  "accessors": [
    {
      "bufferView": 2,
      "componentType": 5126,
      "count": 4895,
      "max": [
        286.4750061035156,
        263.0559997558594,
        23.972000122070312
      ],
      "min": [
        275.447998046875,
        238.6020050048828,
        12.600000381469727
      ],
      "type": "VEC3"
    },
    {
      "bufferView": 2,
      "byteOffset": 58740,
      "componentType": 5126,
      "count": 4895,
      "max": [
        1,
        1,
        1
      ],
      "min": [
        -1,
        -1,
        -1
      ],
      "type": "VEC3"
    },
    {
      "bufferView": 1,
      "componentType": 5126,
      "count": 4895,
      "max": [
        0.9961339831352234,
        0.9947919845581055
      ],
      "min": [
        0.004588000010699034,
        0.006029009819030762
      ],
      "type": "VEC2"
    },
    {
      "bufferView": 0,
      "componentType": 5125,
      "count": 12324,
      "type": "SCALAR"
    }
  ],
  "asset": {
    "extras": {
      "author": "maregajavier (https://sketchfab.com/maregajavier)",
      "license": "CC-BY-4.0 (http://creativecommons.org/licenses/by/4.0/)",
      "source": "https://sketchfab.com/3d-models/swat-van-5445f03cfe9c474f9ca2b75739b5184f",
      "title": "Swat Van"
    },
    "generator": "Sketchfab-14.54.0",
    "version": "2.0"
  },
  "bufferViews": [
    {
      "buffer": 0,
      "byteLength": 49296,
      "name": "floatBufferViews",
      "target": 34963,
      "byteOffset": 0
    },
    {
      "buffer": 0,
      "byteLength": 39160,
      "byteOffset": 49296,
      "byteStride": 8,
      "name": "floatBufferViews",
      "target": 34962
    },
    {
      "buffer": 0,
      "byteLength": 117480,
      "byteOffset": 88456,
      "byteStride": 12,
      "name": "floatBufferViews",
      "target": 34962
    }
  ],
  "buffers": [
    {
      "uri": "swat_van_data.bin",
      "byteLength": 205936
    }
  ],
  "images": [
    {
      "uri": "swat_van_img0.png"
    }
  ],
  "materials": [
    {
      "doubleSided": true,
      "name": "SwatVan1Mtl",
      "pbrMetallicRoughness": {
        "baseColorTexture": {
          "index": 0
        },
        "metallicFactor": 0,
        "roughnessFactor": 0.6
      }
    }
  ],
  "meshes": [
    {
      "name": "Object_0",
      "primitives": [
        {
          "attributes": {
            "NORMAL": 1,
            "POSITION": 0,
            "TEXCOORD_0": 2
          },
          "indices": 3,
          "material": 0,
          "mode": 4
        }
      ]
    }
  ],
  "nodes": [
    {
      "children": [
        1
      ],
      "matrix": [
        0.19761469960212708,
        0,
        0,
        0,
        0,
        4.387927790053305e-17,
        -0.19761469960212708,
        0,
        0,
        0.19761469960212708,
        4.387927790053305e-17,
        0,
        0,
        0,
        0,
        1
      ],
      "name": "Sketchfab_model"
    },
    {
      "children": [
        2
      ],
      "name": "Swat Van.obj.cleaner.materialmerger.gles"
    },
    {
      "mesh": 0,
      "name": "Object_2"
    }
  ],
  "samplers": [
    {
      "magFilter": 9729,
      "minFilter": 9987,
      "wrapS": 10497,
      "wrapT": 10497
    }
  ],
  "scene": 0,
  "scenes": [
    {
      "name": "Sketchfab_Scene",
      "nodes": [
        0
      ]
    }
  ],
  "textures": [
    {
      "sampler": 0,
      "source": 0
    }
  ]
}